<svg xmlns="http://www.w3.org/2000/svg" viewBox="0 0 2003.43 541.53"><defs><style>.cls-1{fill:#606060;stroke:#6a4359;stroke-miterlimit:10;stroke-width:12.09px;}.cls-2{fill:#263036;}.cls-3{fill:#6a4359;}</style></defs><title>logoiolife_1</title><g id="Capa_2" data-name="Capa 2"><g id="Object"><path class="cls-1" d="M465.49,535.49H159.82L7,270.77,159.82,6H465.49L618.33,270.77Zm-300.34-9.23h295L607.67,270.77,460.16,15.27h-295L17.64,270.77Z"/><line class="cls-1" x1="159.82" y1="6.05" x2="460.16" y2="526.26"/><line class="cls-1" x1="460.16" y1="15.27" x2="165.15" y2="526.26"/><line class="cls-1" x1="6.98" y1="270.77" x2="618.33" y2="270.77"/><line class="cls-1" x1="155.59" y1="13.37" x2="155.09" y2="14.24"/><circle class="cls-1" cx="309.99" cy="266.15" r="48.46"/><path class="cls-2" d="M712.84,55.33V400.41H693.43V55.33Z"/><path class="cls-2" d="M1078.73,102.24q51.87,51.87,51.87,125.2t-51.87,125.2q-51.87,51.87-125.2,51.87t-125.2-51.87q-51.87-51.87-51.87-125.2t51.87-125.2q51.87-51.87,125.2-51.87T1078.73,102.24Zm-125.2-32q-65.14,0-111.18,46t-46,111.18q0,65.14,46,111.29t111.18,46.15q65.13,0,111.18-46.15t46-111.29q0-65.13-46-111.18T953.53,70.21Z"/><path class="cls-3" d="M1431.86,400.41h-239V47.49h69.79V334.15h169.17Z"/><path class="cls-3" d="M1529,100.49h-66.26V34.24H1529Zm-.88,299.92h-64.49V144.66h64.49Z"/><path class="cls-3" d="M1729.13,92.1a83.29,83.29,0,0,0-16.34-4.64,101.09,101.09,0,0,0-15.46-1.1q-18.55,0-26.28,8.39t-7.73,30.48v20.32h40.2V201.2h-40.2V400.41h-63.61V201.2h-30.92V145.55h30.92V126.11q0-48.14,18-73.32T1681,27.61a181.32,181.32,0,0,1,48.15,6.18Z"/><path class="cls-3" d="M2003.43,272.31q0,6.19-.66,12.81t-1.55,13.69H1797.15a88,88,0,0,0,9.94,21A69.84,69.84,0,0,0,1822.77,337a74.12,74.12,0,0,0,21,11.48,76,76,0,0,0,25.84,4.2,104.76,104.76,0,0,0,34.45-6q17.23-6,28.71-16.12l40.2,40.2q-26.5,19.88-51.9,28a174.27,174.27,0,0,1-53.67,8.17,137.39,137.39,0,0,1-97-39.31,134,134,0,0,1-28.93-42.62,134.52,134.52,0,0,1,0-104.68,132.32,132.32,0,0,1,29.15-42.62,140.61,140.61,0,0,1,43.29-28.71,133.11,133.11,0,0,1,53-10.6,137.37,137.37,0,0,1,51.68,9.94A140.59,140.59,0,0,1,1962.35,176a129.75,129.75,0,0,1,30,42.18Q2003.42,242.72,2003.43,272.31Zm-66.7-24.74q-7.52-24.29-26.72-39.09a69.48,69.48,0,0,0-43.51-14.8,67.92,67.92,0,0,0-42.85,14.8q-19,14.8-26.5,39.09Z"/></g></g></svg>